<svg width="128" height="128" viewBox="0 0 128 128" fill="none" xmlns="http://www.w3.org/2000/svg">
  <rect width="128" height="128" rx="28" fill="#0F172A"/>
  <path d="M31 78.5C31 62.536 43.536 50 59.5 50H68.5C84.464 50 97 62.536 97 78.5V84H31V78.5Z" fill="#38BDF8"/>
  <rect x="35" y="86" width="58" height="10" rx="5" fill="#F8FAFC"/>
  <rect x="41" y="58" width="16" height="18" rx="4" fill="#F8FAFC"/>
  <rect x="59" y="58" width="16" height="18" rx="4" fill="#F8FAFC"/>
  <path d="M39 44C39 35.1634 46.1634 28 55 28H73C81.8366 28 89 35.1634 89 44V49H39V44Z" fill="#FBBF24"/>
  <circle cx="88" cy="38" r="8" fill="#F8FAFC"/>
  <path d="M34 92H96" stroke="#FBBF24" stroke-width="6" stroke-linecap="round"/>
</svg>
